<svg id="Capa_1" enable-background="new 0 0 512 512" height="512" viewBox="0 0 512 512" width="512" xmlns="http://www.w3.org/2000/svg"><g><g><g clip-rule="evenodd" fill-rule="evenodd"><path d="m192.361 78.318 47.168 47.168c10.932-1.416 22.012-1.416 32.944 0l47.168-47.168-63.641-63.639zm190.082 190.083 47.167 47.167 63.639-63.64-63.639-63.639-47.167 47.167c1.416 10.933 1.416 22.013 0 32.945zm-109.971 109.97c-10.932 1.417-22.012 1.417-32.944 0l-47.167 47.167 63.639 63.64 63.639-63.639zm-190.082-190.082-63.64 63.639 63.64 63.64 47.168-47.168c-1.416-10.932-1.416-22.012 0-32.944z" fill="#ffee89"/><path d="m220.266 106.224 19.262 19.262c10.932-1.416 22.012-1.416 32.944 0l19.262-19.262c-23.452-5.728-48.016-5.728-71.468 0zm181.389 110.021c5.695 23.418 5.695 47.95-.001 71.367l-19.211-19.211c1.416-10.932 1.416-22.012 0-32.944zm-109.972 181.338c-23.417 5.695-47.949 5.696-71.367.001l19.211-19.212c10.932 1.417 22.012 1.417 32.944 0zm-181.387-109.921c-5.728-23.451-5.728-48.016 0-71.467l19.262 19.262c-1.416 10.932-1.416 22.012 0 32.944z" fill="#ffe200"/><path d="m399.5 82.068c0 28.995 23.505 52.5 52.5 52.5s52.5-23.505 52.5-52.5-23.505-52.5-52.5-52.5-52.5 23.505-52.5 52.5zm-392 0c0 28.995 23.505 52.5 52.5 52.5s52.5-23.505 52.5-52.5-23.505-52.5-52.5-52.5c-28.995 0-52.5 23.505-52.5 52.5zm105 339.721c0-28.995-23.505-52.5-52.5-52.5s-52.5 23.505-52.5 52.5 23.505 52.5 52.5 52.5 52.5-23.505 52.5-52.5z" fill="#f696c3"/><circle cx="256" cy="251.929" fill="#f696c3" r="52.5"/><path d="m256 304.428c-28.995 0-52.5-23.505-52.5-52.5s23.505-52.5 52.5-52.5 52.5 23.505 52.5 52.5c0 28.996-23.505 52.5-52.5 52.5zm68.943-121.442c-38.09-38.09-99.796-38.09-137.886 0s-38.09 99.796 0 137.886 99.796 38.09 137.886 0c38.09-38.091 38.09-99.796 0-137.886z" fill="#fff"/><path d="m187.057 320.872c-38.09-38.09-38.09-99.796 0-137.886s99.796-38.09 137.886 0 38.09 99.796 0 137.886c-38.09 38.089-99.796 38.09-137.886 0zm159.099-159.099c-49.799-49.799-130.513-49.799-180.312 0s-49.799 130.513 0 180.312c49.806 49.806 130.713 49.599 180.312 0s49.806-130.507 0-180.312z" fill="#bababe"/><path d="m351.05 389.405 102.273 102.273c11.667 11.667 30.759 11.667 42.426 0s11.667-30.76 0-42.427l-102.273-102.273z" fill="#bababe"/><path d="m334.933 352.074 26.724 26.724 21.213-21.213-26.724-26.724c-3.071 3.886-6.401 7.635-9.989 11.223-3.589 3.589-7.338 6.919-11.224 9.99z" fill="#7a797f"/><path d="m267.25 155.07c-28.552-3.299-58.28 6.003-80.193 27.916-38.09 38.09-38.09 99.796 0 137.886 21.912 21.912 51.64 31.215 80.192 27.915-113.918-13.166-113.918-180.551.001-193.717z" fill="#9ce4f8"/><path d="m267.25 200.641c-23.588 5.151-41.25 26.154-41.25 51.287s17.662 46.137 41.25 51.288c-32.555 7.108-63.75-17.589-63.75-51.288 0-33.698 31.195-58.395 63.75-51.287z" fill="#f072ae"/><path d="m351.05 389.405 102.273 102.273c15.109 15.109 40.683 9.842 48.823-9.513-10.919 4.592-24.055 2.461-32.913-6.397l-102.273-102.273z" fill="#7a797f"/><path d="m71.25 370.488c-23.588 5.151-41.25 26.155-41.25 51.288s17.662 46.137 41.25 51.288c-32.555 7.108-63.75-17.589-63.75-51.288s31.195-58.396 63.75-51.288zm392-339.707c-23.589 5.15-41.25 26.154-41.25 51.287s17.662 46.137 41.25 51.288c-32.555 7.108-63.75-17.589-63.75-51.288s31.194-58.396 63.75-51.287zm-392 0c-23.588 5.15-41.25 26.154-41.25 51.287s17.662 46.137 41.25 51.288c-32.555 7.108-63.75-17.589-63.75-51.288s31.195-58.396 63.75-51.287z" fill="#f072ae"/></g><g><path d="m414.689 421.224-10.606-10.606 10.607-10.606 10.606 10.606zm-21.213-21.213-10.606-10.606 10.607-10.606 10.606 10.606z" fill="#fff"/></g></g><g><path d="m330.247 177.682c-19.839-19.838-46.207-30.764-74.247-30.764-28.039 0-54.407 10.926-74.246 30.764-19.838 19.838-30.764 46.207-30.764 74.246 0 28.041 10.926 54.408 30.764 74.247 19.839 19.838 46.207 30.764 74.247 30.764 28.039 0 54.407-10.926 74.246-30.764 40.939-40.939 40.939-107.553 0-148.493zm-10.606 137.886c-17.006 17.005-39.606 26.371-63.641 26.371-24.033 0-46.634-9.365-63.639-26.371h-.001c-17.005-17.005-26.371-39.606-26.37-63.64 0-24.034 9.365-46.635 26.371-63.64 17.005-17.005 39.605-26.371 63.639-26.371s46.635 9.365 63.64 26.371c35.09 35.092 35.09 92.189.001 127.28z"/><path d="m393.477 336.372-10.607 10.607-16.834-16.834c10.137-14.246 17.184-30.029 21.128-46.416l42.446 42.446 74.246-74.246-74.246-74.246-42.446 42.446c-5.619-23.345-17.518-45.473-35.705-63.66-18.186-18.187-40.314-30.086-63.659-35.705l42.446-42.446-31.819-31.82-10.607 10.606 21.214 21.213-39.368 39.368c-9.085-.916-18.245-.916-27.33 0l-39.368-39.368 53.032-53.032 21.213 21.213 10.607-10.606-31.82-31.82-74.246 74.247 42.446 42.446c-23.345 5.619-45.473 17.518-63.659 35.705-18.187 18.186-30.086 40.314-35.705 63.659l-42.446-42.446-74.246 74.245 74.246 74.246 42.446-42.446c5.619 23.345 17.518 45.473 35.704 63.659 17.809 17.808 39.716 30.021 63.591 35.774l-42.377 42.378 21.214 21.213 10.606-10.606-10.607-10.606 39.296-39.295c4.535.456 9.118.69 13.738.69s9.202-.234 13.738-.69l39.296 39.295-53.035 53.032-10.606-10.607-10.607 10.606 21.213 21.214 74.246-74.246-42.377-42.378c16.654-4.013 32.349-11.171 46.364-21.18l16.817 16.817-10.606 10.606 107.576 107.577c7.06 7.06 16.477 10.947 26.517 10.947s19.457-3.888 26.517-10.947 10.947-16.477 10.947-26.517-3.889-19.457-10.947-26.516zm36.133-137.476 53.033 53.033-53.033 53.033-39.368-39.368c.916-9.085.916-18.244 0-27.329zm-347.22 106.065-53.033-53.033 53.033-53.033 39.368 39.368c-.916 9.085-.917 18.245 0 27.33zm88.757 31.82c-46.788-46.788-46.788-122.917 0-169.706 23.396-23.397 54.119-35.091 84.853-35.091 30.726 0 61.462 11.7 84.853 35.091 46.788 46.788 46.788 122.918 0 169.706-22.668 22.669-52.803 35.153-84.853 35.153s-62.185-12.484-84.853-35.153zm174.86 15.761c1.855-1.664 3.676-3.378 5.452-5.154 1.78-1.78 3.494-3.6 5.153-5.453l15.65 15.651-10.606 10.606zm144.438 133.833c-4.226 4.226-9.876 6.554-15.909 6.554s-11.684-2.328-15.909-6.554l-96.971-96.97 31.82-31.82 96.969 96.97c4.227 4.226 6.554 9.876 6.555 15.91 0 6.033-2.328 11.683-6.555 15.91z"/><path d="m256 191.928c-33.084 0-60 26.916-60 60s26.916 60 60 60 60-26.916 60-60-26.916-60-60-60zm0 105c-24.813 0-45-20.187-45-45s20.187-45 45-45 45 20.187 45 45-20.187 45-45 45z"/><path d="m216.68 449.859h15v15h-15z" transform="matrix(.707 -.707 .707 .707 -257.733 292.454)"/><path d="m452 142.068c33.084 0 60-26.916 60-60s-26.916-60-60-60-60 26.916-60 60 26.916 60 60 60zm0-105c24.813 0 45 20.187 45 45s-20.187 45-45 45-45-20.187-45-45 20.187-45 45-45z"/><path d="m60 142.068c33.084 0 60-26.916 60-60s-26.916-60-60-60-60 26.916-60 60 26.916 60 60 60zm0-105c24.813 0 45 20.187 45 45s-20.187 45-45 45-45-20.187-45-45 20.187-45 45-45z"/><path d="m60 361.789c-33.084 0-60 26.916-60 60s26.916 60 60 60 60-26.916 60-60-26.916-60-60-60zm0 105c-24.813 0-45-20.187-45-45s20.187-45 45-45 45 20.187 45 45-20.187 45-45 45z"/></g></g></svg>